/* XPM */
static char *result[] = {
/* columns rows colors chars-per-pixel */
"32 32 164 2 ",
"   c #000101",
".  c #0A0807",
"X  c #0A090A",
"o  c #0F1313",
"O  c #18191A",
"+  c #131515",
"@  c #18170A",
"#  c #2C1B08",
"$  c #3C1E00",
"%  c #2D2510",
"&  c #272917",
"*  c #372F1C",
"=  c #3D3110",
"-  c #3C3421",
";  c #37342B",
":  c #3D3A23",
">  c #3D3D3B",
",  c #512A02",
"<  c #583009",
"1  c #5B3106",
"2  c #6F3802",
"3  c #6A3F0B",
"4  c #713702",
"5  c #753C02",
"6  c #7A3E01",
"7  c #473E25",
"8  c #7F4006",
"9  c #71400C",
"0  c #7B430B",
"q  c #7B4B19",
"w  c #4C4725",
"e  c #5A5720",
"r  c #4A4232",
"t  c #7A5128",
"y  c #6A5A38",
"u  c #636228",
"i  c #766B2C",
"p  c #5D5A4F",
"a  c #645C49",
"s  c #797141",
"d  c #69696A",
"f  c #8A4D08",
"g  c #994500",
"h  c #A35C0B",
"j  c #BB5900",
"k  c #B87D1D",
"l  c #A66B17",
"z  c #D35F00",
"x  c #CD6500",
"c  c #CF6A01",
"v  c #D36100",
"b  c #D96200",
"n  c #D46E02",
"m  c #DA6D02",
"M  c #DD7305",
"N  c #DC7A09",
"B  c #DE7C1D",
"V  c #E56D00",
"C  c #E27302",
"Z  c #E87702",
"A  c #E87D07",
"S  c #EA7E08",
"D  c #E27F10",
"F  c #80714F",
"G  c #8A754B",
"H  c #917B49",
"J  c #847551",
"K  c #8F7E51",
"L  c #8A7957",
"P  c #857B64",
"I  c #E48312",
"U  c #E98715",
"Y  c #EA8A16",
"T  c #E58E1A",
"R  c #ED9017",
"E  c #E3911C",
"W  c #EC941D",
"Q  c #F1941D",
"!  c #ED8E2D",
"~  c #EB9C24",
"^  c #F29D25",
"/  c #C7A035",
"(  c #E5A32B",
")  c #EAA32A",
"_  c #F5A52B",
"`  c #FAA42A",
"'  c #FBA92E",
"]  c #EAAF31",
"[  c #F3AF32",
"{  c #FFAF32",
"}  c #EEB436",
"|  c #EEBB3C",
" . c #E8B63B",
".. c #FEB234",
"X. c #F3B837",
"o. c #FDB638",
"O. c #FDBC3C",
"+. c #F2B837",
"@. c #98844D",
"#. c #978155",
"$. c #AA8B42",
"%. c #B79649",
"&. c #B7984E",
"*. c #AD9151",
"=. c #B69A57",
"-. c #B69A58",
";. c #B59856",
":. c #B3AA46",
">. c #8F846E",
",. c #978765",
"<. c #B29C68",
"1. c #AC9A71",
"2. c #A99565",
"3. c #B9A065",
"4. c #B6A16D",
"5. c #C7A24E",
"6. c #C8A24A",
"7. c #CCBB47",
"8. c #C3A152",
"9. c #C1A35C",
"0. c #CCBD5C",
"q. c #EBA24E",
"w. c #FABF40",
"e. c #C1A668",
"r. c #C5AA6B",
"t. c #CBAE6B",
"y. c #CEAD61",
"u. c #C2AC79",
"i. c #E8AC70",
"p. c #CCC44F",
"a. c #ECC243",
"s. c #F2C544",
"d. c #FEC543",
"f. c #F6CE4A",
"g. c #FDCC49",
"h. c #FCC846",
"j. c #FCD34D",
"k. c #E1D65A",
"l. c #F6D651",
"z. c #F9D652",
"x. c #F7D852",
"c. c #FBDB54",
"v. c #FFDF59",
"b. c #FEE45B",
"n. c #FEE95E",
"m. c #FBE157",
"M. c #ECE660",
"N. c #FFEC62",
"B. c #FAE168",
"V. c #FEF265",
"C. c #FFFB6D",
"Z. c #FFFF75",
"A. c #8D8A85",
"S. c #98938D",
"D. c #8D9397",
"F. c #DAB58F",
"G. c #EFC497",
"H. c #EEC49B",
"J. c #CCCBCC",
"K. c #CBCCC6",
"L. c #D6DADC",
"P. c #F9EFDF",
"I. c #FAF0E5",
"U. c #FDFFFF",
/* pixels */
"6.6.6.6.6.6.6.6.6.6.6.6.6.6.6.6.6.6.6.6.6.6.6.6.6.6.6.6.6.6.6.6.",
"6.6.6.6.6.6.6.6.6.6.6.6.6.6.6.6.6.6.6.6.6.6.6.6.6.6.6.6.6.6.6.6.",
"6.6.6.6.6.6.6.6.6.6.6.6.6.6.6.6.6.6.6.6.6.6.6.6.6.6.6.6.6.6.6.6.",
"6.6.6.6.6.6.6.6.6.6.6.6.t.r ; ; ; ; ; 2.6.6.6.6.6.6.6.6.6.6.6.6.",
"6.6.6.6.6.6.6.6.6.5.-.-.<.w = $ $ $ $ G -.-.-.5.6.6.6.6.6.6.6.6.",
"6.6.6.6.6.6.6.6.6.*.    % M.f.m C m m 5     X 5.6.6.6.6.6.6.6.6.",
"6.6.6.6.6.6.6.5.H L D.q f ( ) W Q ^ } k 6 6 0 K 3.6.6.6.6.6.6.6.",
"6.6.6.6.6.6.0.r.  d U.! C n I o.o.w.N.X.S S C   ,.6.6.6.6.6.6.6.",
"6.6.6.6.6.6.a 7 L.F.B _ ' ` o.b.b.N.N.b.x.x.l.j q 7 %.6.6.6.6.6.",
"6.6.6.6.6.6.r O U.H.z ' ..O.g.N.f.f.f.c.N.N.N.V 5 X $.6.6.6.6.6.",
"6.6.6.6.6.6.r O U.H.v _ o.b.N.C.m n n ) N.N.b.b 2 X &.6.6.6.6.6.",
"6.6.6.6.4.P A.S.i.q.R h.z.b.l.) ~ W ~ ~ ) c.b.} k 8 J ,.6.6.6.6.",
"6.6.6.6.F   J.I.n U o.b.N.N.s.z { { ..~ m f.b.V.X.C $ * 6.6.6.6.",
"6.6.6.6.J   J.I.m U { v.x.U T _ { { ' O.l.w.O.V.] n $ - 6.6.6.6.",
"6.6.6.6.J   J.I.m Y { v.x.N D o.{ ..w.z.V.o...V.] n $ - 6.6.6.6.",
"6.6.6.6.J   J.I.M Y { b.x.N I ..' o.N.b.N.o.{ V.] n $ 7 6.6.6.6.",
"6.6.6.6.J   J.I.m Y { v.x.N I ..g.j.n.n.N.o...V.] n $ - 6.6.6.6.",
"6.6.6.6.J   K.P.m Y { b.x.N I { N.n.n.n.N.O...V.} n $ - 6.6.6.6.",
"6.6.6.6.J   0.B.M U { v.z.N E b.n.n.b.N.N.O.{ V.] n $ - 6.6.6.6.",
"6.6.6.6.J   7.c.n R { b.x.E ) v.n.n.b.b.c.d.O.V.] n $ - 6.6.6.6.",
"6.6.6.6.J   p.n.n U o.b.N.N.c.` n.N.N.g.{ c.N.V.[ M , * 6.6.6.6.",
"6.6.6.6.r.1.s i | ) I w.g.b.b.g.d.d.d.g.j.b.b.~ l , ,.4.6.6.6.6.",
"6.6.6.6.6.5.r @ V.| z ` o.m.b.V.......g.n.n.b.b 4   u.6.6.6.6.6.",
"6.6.6.6.6.5.r @ V.| z ' o.o.d.N.n.b.b.n.N.V.N.V 0   u.6.6.6.6.6.",
"6.6.6.6.6.6.G y :./ E ^ ^ ^ [ c.c.c.c.f.s.s.a.g t p t.6.6.6.6.6.",
"6.6.6.6.6.6.6.5.X u Z.U C m D ..{ { ..Q C Z m   >.5.6.6.6.6.6.6.",
"6.6.6.6.6.6.6.6.*.@.e , 3  .} U Y Y Y h , , < -.9.6.6.6.6.6.6.6.",
"6.6.6.6.6.6.6.6.6.;.  + & k.a.x x n n 3 + o O 6.6.6.6.6.6.6.6.6.",
"6.6.6.6.6.6.6.6.6.6.8.8.e.: % # # # # #.8.8.8.6.6.6.6.6.6.6.6.6.",
"6.6.6.6.6.6.6.6.6.6.6.6.6.6.6.6.6.6.6.6.6.6.6.6.6.6.6.6.6.6.6.6.",
"6.6.6.6.6.6.6.6.6.6.6.6.6.6.6.6.6.6.6.6.6.6.6.6.6.6.6.6.6.6.6.6.",
"6.6.6.6.6.6.6.6.6.6.6.6.6.6.6.6.6.6.6.6.6.6.6.6.6.6.6.6.6.6.6.6."
};
