/* XPM */
static char *d640b50e256f4c13c45f6a65661ec00aDui1vmWejzYQ96K4[] = {
/* columns rows colors chars-per-pixel */
"32 32 167 2 ",
"   c #000101",
".  c #100D06",
"X  c #191007",
"o  c #181409",
"O  c #1E190D",
"+  c #151107",
"@  c #040B10",
"#  c #071011",
"$  c #091313",
"%  c #1C1C11",
"&  c #2D1500",
"*  c #2E1F0C",
"=  c #321A06",
"-  c #2D200F",
";  c #36250D",
":  c #3F2D0C",
">  c #2E2512",
",  c #222A1C",
"<  c #362C14",
"1  c #38311A",
"2  c #213629",
"3  c #393523",
"4  c #4D2200",
"5  c #402C0B",
"6  c #522901",
"7  c #5F3203",
"8  c #5A3F10",
"9  c #533D15",
"0  c #623303",
"q  c #793E02",
"w  c #5C4111",
"e  c #6C420D",
"r  c #684E16",
"t  c #6D4314",
"y  c #4F562F",
"u  c #584D30",
"i  c #5C5F35",
"p  c #65542D",
"a  c #635327",
"s  c #666538",
"d  c #666B39",
"f  c #6C6841",
"g  c #814507",
"h  c #9E570A",
"j  c #885F18",
"k  c #AA5A07",
"l  c #8D611B",
"z  c #90661A",
"x  c #9C6D1F",
"c  c #B26007",
"v  c #9C6E21",
"b  c #91702A",
"n  c #9E7528",
"m  c #85763B",
"M  c #AC7A25",
"N  c #B47F24",
"B  c #CF6300",
"V  c #C56C09",
"C  c #D56400",
"Z  c #D46E02",
"A  c #DA6C00",
"S  c #DB7203",
"D  c #DC7D0D",
"F  c #CA7B13",
"G  c #E16D00",
"H  c #E37401",
"J  c #E87E08",
"K  c #E97C06",
"L  c #F27A01",
"P  c #897F41",
"I  c #B78429",
"U  c #DE8312",
"Y  c #EC8C15",
"T  c #ED931D",
"R  c #E3921C",
"E  c #F58409",
"W  c #CD8E25",
"Q  c #DE9B25",
"!  c #D09229",
"~  c #D2972A",
"^  c #CD9B32",
"/  c #DB9D32",
"(  c #EB9720",
")  c #EC9A21",
"_  c #D7A636",
"`  c #E8A027",
"'  c #E9A42B",
"]  c #ECA82D",
"[  c #F2A027",
"{  c #F3A42D",
"}  c #F8A72B",
"|  c #FDAC2D",
" . c #FFB12D",
".. c #ECAC31",
"X. c #F2A630",
"o. c #FEAE31",
"O. c #ECB63A",
"+. c #FFB334",
"@. c #FFBA36",
"#. c #FEB739",
"$. c #FDBB3B",
"%. c #FFC134",
"&. c #FEC23A",
"*. c #FFC93F",
"=. c #988641",
"-. c #9F984D",
";. c #9A964A",
":. c #989353",
">. c #A5934B",
",. c #AC9B4A",
"<. c #B19C4B",
"1. c #BC9F4B",
"2. c #B39E50",
"3. c #BDA14B",
"4. c #B0A656",
"5. c #BCA450",
"6. c #C2A14B",
"7. c #C8A24A",
"8. c #D9A64D",
"9. c #E6BD43",
"0. c #FFB840",
"q. c #F4C644",
"w. c #FEC543",
"e. c #F5CA46",
"r. c #FDCA45",
"t. c #F5CD4B",
"y. c #FDCE4B",
"u. c #F7D54F",
"i. c #FCD34D",
"p. c #F6D452",
"a. c #F9D651",
"s. c #FCDC55",
"d. c #FBDF58",
"f. c #FEE652",
"g. c #FFEC57",
"h. c #FDE45B",
"j. c #FFE95E",
"k. c #FECA65",
"l. c #FDD06D",
"z. c #FCCE73",
"x. c #FFEB61",
"c. c #FEEC6C",
"v. c #FFF064",
"b. c #FFF468",
"n. c #FEED74",
"m. c #FCEA78",
"M. c #EFCC8E",
"N. c #FECE84",
"B. c #FCD380",
"V. c #EBCC95",
"C. c #FED592",
"Z. c #FED990",
"A. c #FDED8D",
"S. c #FCF185",
"D. c #FEE09A",
"F. c #FDF091",
"G. c #FEF3AE",
"H. c #FDF6B5",
"J. c #FCE7C3",
"K. c #FEEED1",
"L. c #FDF0D5",
"P. c #FDF8DA",
"I. c #FEF4E6",
"U. c #FDFEE4",
"Y. c #FEFCEB",
"T. c #FEFBF2",
"R. c #FEFFFF",
/* pixels */
"7.7.7.7.7.7.7.7.7.7.7.7.7.7.7.7.7.7.7.7.7.7.7.7.7.7.7.7.7.7.7.7.",
"7.7.7.7.7.7.7.7.7.7.7.7.7.7.7.7.7.7.7.7.7.7.7.7.7.7.7.7.7.7.7.7.",
"7.7.7.7.7.7.7.7.7.7.7.7.7.7.7.7.7.7.7.7.7.7.7.7.7.7.7.7.7.7.7.7.",
"7.7.7.7.7.7.7.7.7.7.7.7.7.7.7.7.7.7.7.7.7.7.7.7.7.7.7.7.7.7.7.7.",
"7.7.7.7.7.7.7.7.7.3.3.4.a 5 5 5 : : s <.<.<.1.7.7.7.7.7.7.7.7.7.",
"7.7.7.7.7.7.7.7.7.a : o Q  .+.+.+. .I + * < 6.7.7.7.7.7.7.7.7.7.",
"7.7.7.7.7.7.7.6.>.z l l M.Z.i.y.i.y._ q q e >.6.7.7.7.7.7.7.7.7.",
"7.7.7.7.7.7.7.s + *.$.@.I.U.c.x.j.x.e.J J E ; i 7.7.7.7.7.7.7.7.",
"7.7.7.7.7.7.m N / T.I.I.S.n.c.x.x.x.x.a.a.h.V h 2 1.7.7.7.7.7.7.",
"7.7.7.7.7.<.9 8.k.Y.P.U.p.e.t.t.t.t.u.x.x.v.) F = <.7.6.7.7.7.7.",
"7.7.7.7.. n $.L.T.f.j.v.D A A A Z A R x.x.j.x.a.G q 3 ,.7.7.7.7.",
"7.7.7.7.  v #.L.T.g.q.` ( ( T T T T ) ' q.x.j.u.G 7 % ,.7.7.7.7.",
"7.7.7.7.  v 0.K.T.g.] C o.+.+.+.+.+.[ A ..x.j.p.A 0 % -.7.7.7.7.",
"7.7.7.7.Q V.P.A.m.D T } o.+.o.o.| h.s.p.w.#.h.h.a.! c p 7.7.7.7.",
"7.7.7.7.%.Z.P.n.s.C T +.o.o.o.#.$.x.x.x.r.| h.j.v.] S & 7.7.7.7.",
"7.7.7.7.@.i.j.j.s.C T +.o.o.| t.x.x.h.f.w.o.h.j.j.' Z & 7.7.7.7.",
"7.7.7.7.@.i.j.j.d.C T +.o.+.e.f.x.h.m.G.l.| h.h.x.' Z & 7.7.7.7.",
"7.7.7.7.@.i.j.j.d.C T +.o.$.x.j.x.x.F.R.C.| h.j.x.' Z & 7.7.7.7.",
"7.7.7.7.&.i.j.j.d.C T +.s.d.j.h.f.I.Y.R.C.| h.j.v.] A & 7.7.7.7.",
"7.7.7.6.W q.s.h.d.U ( [ d.x.h.c.n.R.T.K.B.@.h.h.u.W k u 7.7.7.7.",
"7.7.7.7.  v +.s.x.c.] C s.x.h.H.R.R.J.| r.j.j.u.A 7 % <.7.7.7.7.",
"7.7.7.7.  v @.h.h.x.t.O.w.w.w.k.N.N.z.i.h.j.v.a.G 0 % 6.7.7.7.7.",
"7.7.7.7.> n ] s.h.j.x.c.$.o.+. .|  .&.j.j.j.h.i.B t 3 6.7.7.7.7.",
"7.7.7.7.7.>.; ^ &.v.j.j.h.h.h.h.h.h.h.v.x.b.Y c > :.4.6.7.7.7.7.",
"7.7.7.7.7.6.d b I f.a.s.h.j.j.j.j.j.d.q.q.t.k l P 1.7.7.7.7.7.7.",
"7.7.7.7.7.7.7.y - &.+.+.h.j.x.x.j.c.q.H H L * =.7.7.7.7.7.7.7.7.",
"7.7.7.7.7.7.7.1.;.r w w O.w.w.w.w.w.^ 6 6 4 2.7.7.7.7.7.7.7.7.7.",
"7.7.7.7.7.7.7.7.7., $ @ ~ X.X.X.{ { M $ $   3.7.7.7.7.7.7.7.7.7.",
"7.7.7.7.7.7.7.7.7.7.7.7.7.7.7.7.7.7.7.7.7.7.7.7.7.7.7.7.7.7.7.7.",
"7.7.7.7.7.7.7.7.7.7.7.7.7.7.7.7.7.7.7.7.7.7.7.7.7.7.7.7.7.7.7.7.",
"7.7.7.7.7.7.7.7.7.7.7.7.7.7.7.7.7.7.7.7.7.7.7.7.7.7.7.7.7.7.7.7.",
"7.7.7.7.7.7.7.7.7.7.7.7.7.7.7.7.7.7.7.7.7.7.7.7.7.7.7.7.7.7.7.7."
};
