/* XPM */
static char *result[] = {
/* columns rows colors chars-per-pixel */
"32 32 165 2 ",
"   c #C8A24A",
".  c #7D735C",
"X  c #2E2B24",
"o  c #34312A",
"O  c #373329",
"+  c #26241E",
"@  c #BFA567",
"#  c #C4A04D",
"$  c #BFA059",
"%  c #705F40",
"&  c #3C2905",
"*  c #3F2D0C",
"=  c #3F2D0B",
"-  c #3A2702",
";  c #A38E5D",
":  c #BEA05B",
">  c #987C3A",
",  c #050402",
"<  c #B68225",
"1  c #FFB834",
"2  c #FFB333",
"3  c #FFBB35",
"4  c #513B0E",
"5  c #2C2C2D",
"6  c #987C39",
"7  c #B69737",
"8  c #FFD44E",
"9  c #FFCF4B",
"0  c #FFD84F",
"q  c #524516",
"w  c #997C3A",
"e  c #B6A947",
"r  c #FFF264",
"t  c #FFEB61",
"y  c #FFF666",
"u  c #504F1E",
"i  c #2D2C2D",
"p  c #060402",
"a  c #B6A742",
"s  c #FFEE5A",
"d  c #FFE758",
"f  c #FFF15D",
"g  c #514E1C",
"h  c #2D2C2E",
"j  c #C9A24A",
"k  c #CAA34A",
"l  c #9B7E3A",
"z  c #060502",
"x  c #B5AA5F",
"c  c #FFF485",
"v  c #FEED82",
"b  c #FFF889",
"n  c #524F29",
"m  c #2D2C2C",
"M  c #C9A34A",
"N  c #B5B5B6",
"B  c white",
"V  c #515151",
"C  c #2D2C28",
"Z  c #C6A049",
"A  c #937739",
"S  c gray71",
"D  c #CBA34A",
"F  c #CAA249",
"G  c #C39D48",
"H  c #8C7237",
"J  c #040402",
"K  c #2D2B27",
"L  c #8D7338",
"P  c #B5B5B7",
"I  c #515152",
"U  c #2E2C28",
"Y  c #947839",
"T  c #B4B197",
"R  c #FFFFDC",
"E  c #FEF9D5",
"W  c #FFFFE1",
"Q  c #505143",
"!  c #2D2C29",
"~  c #997C39",
"^  c #B5A841",
"/  c #FFEE5E",
"(  c #FFE75B",
")  c #FFE85A",
"_  c #FFF260",
"`  c #514E1D",
"'  c #B6A844",
"]  c #FFF061",
"[  c #FFE85E",
"{  c #514E1E",
"}  c #9A7C3A",
"|  c #B6A845",
" . c #FFEE61",
".. c #FEE65D",
"X. c #FFF262",
"o. c #514D1E",
"O. c #B78529",
"+. c #FFBC3A",
"@. c #FEB638",
"#. c #FFC03C",
"$. c #523D11",
"%. c #2D2E2F",
"&. c #B67E25",
"*. c #FFB232",
"=. c #FFAD31",
"-. c #FFB535",
";. c #513B0F",
":. c #B67F26",
">. c #FFB433",
",. c #FFAF32",
"<. c #FFB736",
"1. c #523B0F",
"2. c #2C2E2E",
"3. c #B68026",
"4. c #FFB534",
"5. c #FFB033",
"6. c #FFB937",
"7. c #523B10",
"8. c #B47D23",
"9. c #FFB131",
"0. c #FCAB2F",
"q. c #FFB332",
"w. c #503A0F",
"e. c #050405",
"r. c #9F5504",
"t. c #E27706",
"y. c #DC7406",
"u. c #E77A06",
"i. c #4B2700",
"p. c #2E3031",
"a. c #A55F0D",
"s. c #EB8610",
"d. c #E48210",
"f. c #E4820F",
"g. c #EE8811",
"h. c #4C2C05",
"j. c #B68429",
"k. c #FFBA39",
"l. c #FFB537",
"z. c #FFBD39",
"x. c #523E12",
"c. c #987B39",
"v. c #050404",
"b. c #A8640F",
"n. c #F28F16",
"m. c #EA8B15",
"M. c #F79217",
"N. c #4E2E04",
"B. c #2C2D2F",
"V. c #9F823F",
"C. c #161917",
"Z. c #9A5106",
"A. c #D56C01",
"S. c #CF6A00",
"D. c #D86F01",
"F. c #54300C",
"G. c #45433D",
"H. c #C7A24C",
"J. c #C7A34F",
"K. c #6F5F47",
"L. c #231204",
"P. c #2B1A08",
"I. c #1E0D02",
"U. c #B09862",
"Y. c #C6A352",
/* pixels */
"                                                                ",
"                                                                ",
"                                                                ",
"                          . X o O + @                           ",
"                      # $ % & * = - ; :                         ",
"                      > , < 1 2 2 3 4 5                         ",
"                      6 , 7 8 9 9 0 q 5                         ",
"                      w , e r t t y u i                         ",
"                      w p a s d d f g h                         ",
"                j j k l z x c v v b n m                         ",
"                M k j 6 , N B B B B V C j                       ",
"                k k Z A , S B B B B V C M                       ",
"                D F G H J S B B B B V K k j                     ",
"                D F G L J P B B B B I U k j                     ",
"                M M Z Y , T R E E W Q ! M                       ",
"                j j j ~ , ^ / ( ) _ ` i                         ",
"                  j k l z ' ] [ [ r { i                         ",
"                      } p |  .....X.o.h                         ",
"                      w p O.+.@.@.#.$.%.                        ",
"                      w , &.*.=.=.-.;.%.                        ",
"                      w , :.>.,.,.<.1.2.                        ",
"                      w , 3.4.5.5.6.7.2.                        ",
"                      w , 8.9.0.0.q.w.%.                        ",
"                      w e.r.t.y.y.u.i.p.                        ",
"                      w e.a.s.d.f.g.h.p.                        ",
"                      w , j.k.l.l.z.x.%.                        ",
"                      c.v.b.n.m.m.M.N.B.                        ",
"                      V.C.Z.A.S.S.D.F.G.                        ",
"                      H.J.K.L.P.P.I.U.Y.                        ",
"                                                                ",
"                                                                ",
"                                                                "
};
