/* XPM */
static char *result[] = {
/* columns rows colors chars-per-pixel */
"32 32 142 2 ",
"   c #020201",
".  c #080704",
"X  c #0B0A02",
"o  c #010408",
"O  c #131215",
"+  c #2C1D0A",
"@  c #2B1B07",
"#  c #331C04",
"$  c #381B00",
"%  c #211D11",
"&  c #31250F",
"*  c #3B2A0C",
"=  c #3B2203",
"-  c #3E3015",
";  c #37352C",
":  c #38342B",
">  c #303031",
",  c #482A07",
"<  c #412F0B",
"1  c #5B3F0A",
"2  c #623F10",
"3  c #5F4311",
"4  c #614413",
"5  c #79603E",
"6  c #5F5B53",
"7  c #5B5C5C",
"8  c #625D54",
"9  c #666152",
"0  c #6F6C66",
"q  c #8C4A08",
"w  c #924A01",
"e  c #8D6319",
"r  c #BB7215",
"t  c #8F753A",
"y  c #91773C",
"u  c #91783B",
"i  c #CF6500",
"p  c #D56700",
"a  c #D06A01",
"s  c #DA6D01",
"d  c #DD7304",
"f  c #DB7609",
"g  c #E97F09",
"h  c #E37C0A",
"j  c #806D4C",
"k  c #8A7749",
"l  c #8B7A4F",
"z  c #957B40",
"x  c #8B7A50",
"c  c #A79E3E",
"v  c #DD8414",
"b  c #E8820D",
"n  c #E4810E",
"m  c #E28715",
"M  c #EB8A15",
"N  c #F08910",
"B  c #EF931C",
"V  c #CD8520",
"C  c #E79D24",
"Z  c #E89E26",
"A  c #E69E28",
"S  c #F59F27",
"D  c #E8A328",
"F  c #EAAA2F",
"G  c #F1A72E",
"H  c #F7A82D",
"J  c #E5A531",
"K  c #EAAA30",
"L  c #F6AD32",
"P  c #FBAF33",
"I  c #EDB235",
"U  c #EFBB3D",
"Y  c #F7B033",
"T  c #FFB133",
"R  c #FFB738",
"E  c #F2BE3E",
"W  c #FDBA3B",
"Q  c #FFC237",
"!  c #FCC23D",
"~  c #9A8651",
"^  c #92845F",
"/  c #9D8A5F",
"(  c #A69D41",
")  c #A18C5E",
"_  c #AA9051",
"`  c #AD955D",
"'  c #B69A59",
"]  c #BA9D5C",
"[  c #A7A041",
"{  c #A8A055",
"}  c #AB9563",
"|  c #B5A56F",
" . c #BDA570",
".. c #C8A24A",
"X. c #C4A252",
"o. c #CAA652",
"O. c #CCA957",
"+. c #C6A75F",
"@. c #C9A75A",
"#. c #CCA958",
"$. c #FFB840",
"%. c #F4BA58",
"&. c #C7AC6F",
"*. c #D0B36E",
"=. c #C5AB71",
"-. c #CAB075",
";. c #FCC543",
":. c #FDCA44",
">. c #F9CD49",
",. c #FED34D",
"<. c #FADD4A",
"1. c #FDCF5A",
"2. c #FED651",
"3. c #FEE54E",
"4. c #F0E058",
"5. c #FBE35C",
"6. c #FFEA5E",
"7. c #FCE152",
"8. c #FCC267",
"9. c #FDDD7A",
"0. c #FEEB61",
"q. c #FFF564",
"w. c #898989",
"e. c #A8A8A6",
"r. c #A8A9A9",
"t. c #FED48A",
"y. c #FAD793",
"u. c #FDEF87",
"i. c #FFF884",
"p. c #FEF49A",
"a. c #FDE1A6",
"s. c #FDF4A6",
"d. c #FEE5B3",
"f. c #FDE3B8",
"g. c #FEF5BA",
"h. c #FFF8C2",
"j. c #FEFAD5",
"k. c #FDFCE5",
"l. c #FFF7E8",
"z. c #FEFDED",
"x. c #FDFDF4",
"c. c #FFFFFF",
/* pixels */
"................................................................",
"................................................................",
"................................................................",
"............................ .: : ; ; ^ ........................",
"..........................' / < = $ $ 5 ' X.....................",
"........................#.  3 T M s h w   =.....................",
"......................} x w.| >.E I B V e l k ..................",
"......................6   c.h.6.0.0.P R W *   ..................",
"......................8   c.d.R 2.5.f f g # o ..................",
"..................@.-.0 > j.y.G >.5.v m b 4 < +.................",
"..................u   e.c.6.$.p E q.0.2.T T L X ................",
"..................u   r.c.D J I K K 0.2.T T L   ................",
"..................y . e.c.p Z q.A d 0.2.T P L   ................",
"..................y   { i.s Z 6.$.G 0.2.T P L   ................",
"..................u . c q.s Z 6.:.R 0.2.P T L   ................",
"..................u   ( q.s Z 6.;.T 0.,.T T L   ................",
"..................u . ( q.s C 0.;.T 6.,.T T H   ................",
"..................u   ( q.s C 6.;.T 0.2.P T L   ................",
"..................y   ( q.s Z 0.! Y z.a.P P L   ................",
"..................y   ( q.s C 6.1.8.c.f.T P L   ................",
"..................y   ( q.s C 3.g.c.c.f.P P L   ................",
"..................u   ( q.B %.g.k.c.p.9.T T L   ................",
"..................u O ( 4.W t.c.x.k.<.:.L G F % ................",
"..................O.*.8 X l.z.c.s.0.f f h , % X.................",
"......................9   c.z.j.u.7.h n M # o o.................",
"......................8   c.h.6.6.0.R R Q *   o.................",
"......................] ` 7 ~ :.L C M r 3 ) _ ..................",
"........................#.. 4 G v i a q   &.....................",
"..........................o.} * + @ @ 9 X.......................",
"................................................................",
"................................................................",
"................................................................"
};
