/* XPM */
static char *_9a44819afe049e6ef83bfed6ecf8255RCy1TY2pcbGXZXO6[] = {
/* columns rows colors chars-per-pixel */
"32 32 174 2 ",
"   c #5F515A",
".  c #6E5D57",
"X  c #725C5D",
"o  c #7F6755",
"O  c #7E6A54",
"+  c #776256",
"@  c #594961",
"#  c #5A486A",
"$  c #634A69",
"%  c #6D5567",
"&  c #6B5368",
"*  c #78586A",
"=  c #795E64",
"-  c #624B73",
";  c #664D7B",
":  c #684E7C",
">  c #6F4C76",
",  c #724C7A",
"<  c #6B5276",
"1  c #74537F",
"2  c #7F577A",
"3  c #7C5B7D",
"4  c #775A77",
"5  c #7A6262",
"6  c #7F607F",
"7  c #BB5853",
"8  c #987D4E",
"9  c #806B56",
"0  c #8C6E5F",
"q  c #877056",
"w  c #8C7355",
"e  c #8B7158",
"r  c #947A51",
"t  c #9B7E54",
"y  c #95775F",
"u  c #967A58",
"i  c #9E7F5A",
"p  c #917656",
"a  c #BD755E",
"s  c #8F5D6D",
"d  c #8F7267",
"f  c #86667C",
"g  c #8D6D7E",
"h  c #8F6E74",
"j  c #9A6476",
"k  c #906D7C",
"l  c #947374",
"z  c #937178",
"x  c #997973",
"c  c #977867",
"v  c #AB6B6A",
"b  c #A76A6D",
"n  c #B06F67",
"m  c #B67263",
"M  c #A16772",
"N  c #C77F5A",
"B  c #C87F59",
"V  c #CA7B53",
"C  c #CD6764",
"Z  c #D36963",
"A  c #DD7069",
"S  c #C16C7C",
"D  c #D57378",
"F  c #E6766D",
"G  c #EE7B74",
"H  c #E1797B",
"J  c #F27E74",
"K  c #F39B3E",
"L  c #F89E3C",
"P  c #FCA43B",
"I  c #9F8252",
"U  c #A5874E",
"Y  c #A78A4E",
"T  c #AA8B4D",
"R  c #B3934D",
"E  c #BE9A4D",
"W  c #A28452",
"Q  c #AF8C5D",
"!  c #AA8B57",
"~  c #B59352",
"^  c #BA9656",
"/  c #BF9B51",
"(  c #B4905B",
")  c #B99558",
"_  c #A98765",
"`  c #AF8A61",
"'  c #A38262",
"]  c #DB8B4E",
"[  c #DD8447",
"{  c #C29E4C",
"}  c #D48353",
"|  c #C19D50",
" . c #E28E48",
".. c #EA9343",
"X. c #F19841",
"o. c #C7A14B",
"O. c #C8A24A",
"+. c #F6A046",
"@. c #FBAA49",
"#. c #FBB056",
"$. c #F5AA5A",
"%. c #E2A270",
"&. c #F9BF75",
"*. c #F9B967",
"=. c #FAC076",
"-. c #6A4F80",
";. c #7C4F81",
":. c #6D5185",
">. c #715687",
",. c #73538C",
"<. c #7B568D",
"1. c #7B5A8A",
"2. c #7A5782",
"3. c #765491",
"4. c #795692",
"5. c #7D5B96",
"6. c #7F5D98",
"7. c #835B86",
"8. c #8A5D82",
"9. c #89538E",
"0. c #855A8B",
"q. c #8A5B8E",
"w. c #87518C",
"e. c #945E89",
"r. c #8E5595",
"t. c #8C5C90",
"y. c #925496",
"u. c #96569B",
"i. c #9A579E",
"p. c #975A9B",
"a. c #846284",
"s. c #976085",
"d. c #9F6E81",
"f. c #966C89",
"g. c #836D94",
"h. c #896B95",
"j. c #88679E",
"k. c #856798",
"l. c #926494",
"z. c #976698",
"x. c #976A98",
"c. c #9D6B9B",
"v. c #996998",
"b. c #A76586",
"n. c #A86586",
"m. c #9D57A0",
"M. c #9D5DA0",
"N. c #A15CA3",
"B. c #9070A4",
"V. c #9776AA",
"C. c #9B7EAC",
"Z. c #A762A7",
"A. c #A864A7",
"S. c #A36BA2",
"D. c #A965A8",
"F. c #AA6AAA",
"G. c #AE71AD",
"H. c #C36F80",
"J. c #9B80A9",
"K. c #B0A3BA",
"L. c #C39387",
"P. c #CA8291",
"I. c #C59998",
"U. c #C7A9B9",
"Y. c #EBB5B7",
"T. c #FBC784",
"R. c #E6C0A9",
"E. c #FBDAAF",
"W. c #E4C7BC",
"Q. c #FADBB5",
"!. c #C8BECF",
"~. c #D9D2DF",
"^. c #E3DCE7",
"/. c #FDF9F5",
/* pixels */
"O.O.O.O.O.O.O.O.O.O.O.O.O.O.O.O.O.O.O.O.o.o.o.O.O.O.O.O.O.O.O.O.",
"O.O.O.O.O.O.O.O.O.O.O.O.O.O.O.O.O.O.O.O.o.o.O.O.O.O.O.O.O.O.O.O.",
"O.O.O.O.O.O.O.O.o.` a.Q O.O.O.O.O.O.O.o.h I o.O.O.O.O.O.O.O.O.O.",
"O.O.O.O.O.O.O.O./ z 3.` O.O.O.O.O.o.o.| a.1 t o.O.O.O.O.O.O.O.O.",
"O.O.O.O.O.O.O.O.g 4.3.` o.o.o.o.O.O.O.{ a.3.$ { O.O.O.O.O.O.O.O.",
"O.O.O.O.O.O.O.{ 3.3.3.Q o.( x z l _ | { a.4.- U O.O.O.O.O.O.O.O.",
"O.O.O.O.O.O.O.^ 3.3.>.' g 3.3.3.3.6.h.` a.3.: q O.O.O.O.O.O.O.O.",
"O.O.O.O.O.O.O.) 3.<.- >.3.3.3.3.3.j.C.j.<.3.:.O O.O.O.O.O.O.O.O.",
"O.O.O.O.O.O.O.) 3.; : 3.3.3.3.3.3.4.4.4.3.3.:.9 O.O.O.O.O.O.O.O.",
"O.O.O.O.o.~ W ) ,.; <.3.3.3.3.3.3.3.4.3.4.4.:.O o.E O.o.O.O.O.O.",
"O.O.O.{ u & U ) : s m 7.3.3.3.3.3.3.3.3.M m :.O o.5 I { O.O.O.O.",
"O.O.O.u l.7.U ) ; m X.v 3.3.3.3.3.3.3.8. .] 2.9 o.& 4 i O.O.O.O.",
"O.O.R x.q.S.U ~ : B P $.b.3.3.3.3.3.7.%.P ..2 O O.7.p.c.T O.O.O.",
"O.O.e G.q.S.w R :.B P T.W.f.3.4.3.0.I.Q.P ..2 O { q.v.G.d o.O.O.",
"O.{ g D.z.A.X ~ 3.m P *./.R.7.3.3.L./.E.P ] 2.O U p.c.z.f.R O.O.",
"O.Y c.i.z.A., ! 3.8.X.P =.#.V 4.M +.=.@.P m :.9 O i.c.r.S.I O.O.",
"O.i S.u.z.A.u.% 3.3.v K K K v y.8.[ K L } <.:.X > N.c.w.D.c O.O.",
"O.c F.u.l.D.m.y.3.3.<.j v M y.G b.8.v v 0.3.:.$ u.N.S.w.D.f O.O.",
"O.h D.m.l.D.y.u.3.3.3.3.,.3.n.%.D 3.3.3.3.3.-.> i.N.z.9.A.7.O.O.",
"O.f D.i.0.f w X 3.3.3.3.3.w.C A 7 n.3.3.3.3.: $ % f z.y.Z.l.O.O.",
"O.2.a.* $ r { ~ <.3.3.3.3.s.Z A 7 S 3.3.3.3.- O R w 3 ;.q.v.O.O.",
"O.@ t { 9 { O.O.k 6.3.3.3.s.G J F D <.3.3.3.# E O.{   8 p 4 O.O.",
"O.. { O.{ O.O.O._ C.V.6.3.g.Y.H.P.U.4.3.3.,.X o.O.O.R O.o.+ O.O.",
"O.9 O.O.O.O.O.{ ^ h.B.4.3.g.^.4.C.!.3.3.3.: p o.O.O.O.O.O.p O.O.",
"O.U O.O.O.O.O.O.o.x 6.3.3.:.~.4.J.K.3.3.,.& E O.O.O.O.O.O.R O.O.",
"O.{ O.O.O.O.O.O.o.{ 1.1.3.,.g.3.6.:.3.3.- 8 o.O.O.O.O.O.O.O.O.O.",
"O.O.O.O.O.O.O.O.O.O.( 1.3.3.3.3.3.3.<.; q o.O.O.O.O.O.O.O.O.O.O.",
"O.O.O.O.O.O.O.O.O.o.o.( 6 >.3.3.3.>.< w { o.O.O.O.O.O.O.O.O.O.O.",
"O.O.O.O.O.O.O.O.O.O.O.O.~ d 4 < < 5 I o.O.O.O.O.O.O.O.O.O.O.O.O.",
"O.O.O.O.O.O.O.O.O.O.O.O.o.o.o.O.o.o.o.o.O.O.O.O.O.O.O.O.O.O.O.O.",
"O.O.O.O.O.O.O.O.O.O.O.O.O.O.O.O.O.O.o.O.O.O.O.O.O.O.O.O.O.O.O.O.",
"O.O.O.O.O.O.O.O.O.O.O.O.O.O.O.O.O.O.O.O.O.O.O.O.O.O.O.O.O.O.O.O."
};
