/* XPM */
static char *_820f3da74654f82d89850cd1ab647008phGrOjoCSd8lGOu[] = {
/* columns rows colors chars-per-pixel */
"32 32 92 1 ",
"  c #C4A14A",
". c #C8A24A",
"X c #A79C4C",
"o c #4A492F",
"O c #3D3F2D",
"+ c #3F402D",
"@ c #42422D",
"# c #4F4C30",
"$ c #49482F",
"% c #3D3F2C",
"& c #35392B",
"* c #283028",
"= c #32372A",
"- c #3B3D2C",
"; c #373B2B",
": c #383C2B",
"> c #47462F",
", c #575132",
"< c #6D6137",
"1 c #8D783D",
"2 c #A98C43",
"3 c #B59446",
"4 c #C1A04A",
"5 c #C6A24A",
"6 c #C7A24A",
"7 c #A19847",
"8 c #333E2B",
"9 c #987850",
"0 c #2D3429",
"q c #AB9A48",
"w c #A79B47",
"e c #36472E",
"r c #705840",
"t c #B89868",
"y c #BA9F49",
"u c #C6A14A",
"i c #BEA049",
"p c #5E5834",
"a c #5A5433",
"s c #BFA04A",
"d c #BE9F49",
"f c #937C3F",
"g c #775E41",
"h c #635A35",
"j c #939445",
"k c #675D35",
"l c #856A42",
"z c #997950",
"x c #715940",
"c c #2E3429",
"v c #B8B088",
"b c #45452E",
"n c #39402D",
"m c #30412D",
"M c #2D432C",
"N c #28412C",
"B c #2D482F",
"V c #314B30",
"C c #314A30",
"Z c #2D452E",
"A c #283E2B",
"S c #273C2A",
"D c #2F402C",
"F c #454D31",
"G c #4E4E31",
"H c #3A3E2C",
"J c #40412D",
"K c #A8A14B",
"L c #C0A14A",
"P c #B99F4A",
"I c #C1A049",
"U c #C1A14A",
"Y c #C3A24A",
"T c #C4A24A",
"R c #B89E49",
"E c #B59D48",
"W c #B89E48",
"Q c #C2A14A",
"! c #AFA34F",
"~ c #3B412E",
"^ c #525132",
"/ c #C5A24A",
"( c #575E36",
") c #42432E",
"_ c #615A35",
"` c #6C6B3A",
"' c #3B3E2C",
"] c #A89C4A",
"[ c #AE9E4C",
"{ c #82974E",
"} c #283629",
"| c #9B9949",
/* pixels */
" ...XoO++@#$%&***=-;:>,<1234...5",
"..678*999999999999999999990oq...",
"..wer99ttttt99tttt99ttttt99roy..",
"uipr9tttttt9tttttttt9tttttt9ras.",
"dfg9t9tttt9ttt9999ttt9tttt9t9rhj",
"klztt9ttt9ttt9tttt9ttt9ttt9tt9xc",
"*9ttt9vvv9vvv9vvvv9vvv9vvv9ttt9*",
"*9ttv9999rr999rrrr999rr9999vtt9*",
"*9tv9r9999rr99999999rr9999r9vt9*",
"*9v999r99rrrrrrrrrrrrrr99r999v9*",
"*9t9999r****************r9999t9*",
"*r99999******************99999r*",
"*rr999r***rrrrrrrrrrrr***r999rr*",
"*rrr99r**r9r999rr999r9r**r99rrr*",
"*r9rrrr*r99r999rr999r99r*rrrr9r*",
"*r99rrr*r99r9**rr**9r99r*rrr99r*",
"*r9999r*r99r9******9r99r*r9999r*",
"*rr999r*r99r9t****t9r99r*r999rr*",
"r*rr99r*r99r99t**t99r99r*r99rr*r",
"r**rrrr*r99r999tt999r99r*rrrr**r",
"r***rrr*r99r999rr9****rr*rrr***r",
"**9*99r**99r999rr9r**9r**r99*9**",
"*r9*99r**99r999rr9****r**r99*9r*",
"*r9*99r**99r999rr9*tt*r**r99*9r*",
"*r9*rrr**99r999rr9****r**rrr*9r*",
"*r9*rrr**rrrrrrrrrrrrrr**rrr*9r*",
"*r*999r*ObnmMNBVCZASDFGH*r999*r*",
"*rrrrrrJKLPdIIUYTUREWQL!~rrrrrr*",
"*rrrrrr^/..............5(rrrrrr*",
")rrrrrx_5..............5`rrrrrr'",
"]$****H[...............6{}****;|",
"................................"
};
