/* XPM */
static char *_7bcfa279e8d402a98134e41dc2cbf969oCZHguQHxNrZTtE[] = {
/* columns rows colors chars-per-pixel */
"32 32 140 2 ",
"   c #040404",
".  c #060708",
"X  c #0B0B0A",
"o  c #151514",
"O  c #316C35",
"+  c #327339",
"@  c #34783D",
"#  c #50504F",
"$  c #717172",
"%  c #767D79",
"&  c gray48",
"*  c #358A3E",
"=  c #3F8D47",
"-  c #3C8F4A",
";  c #369245",
":  c #3A9445",
">  c #3D9B45",
",  c #379148",
"<  c #3C944A",
"1  c #3D9948",
"2  c #438F49",
"3  c #4B8F48",
"4  c #518B47",
"5  c #5C8F48",
"6  c #439346",
"7  c #4C9247",
"8  c #409D46",
"9  c #449248",
"0  c #4B9248",
"q  c #449B4B",
"w  c #529247",
"e  c #559149",
"r  c #5D9249",
"t  c #439A53",
"y  c #489955",
"u  c #6D8E49",
"i  c #679647",
"p  c #699347",
"a  c #659349",
"s  c #6C944A",
"d  c #72944A",
"f  c #7E964A",
"g  c #45A346",
"h  c #49A746",
"j  c #4BAB47",
"k  c #46A349",
"l  c #4BA44B",
"z  c #4CAB49",
"x  c #53AC4E",
"c  c #4FB048",
"v  c #51B147",
"b  c #59BB47",
"n  c #54B449",
"m  c #57B849",
"M  c #59BA49",
"N  c #4DA651",
"B  c #5EB359",
"V  c #60AE5F",
"C  c #64BE54",
"Z  c #68BE5E",
"A  c #7C817E",
"S  c #5BA266",
"D  c #5DA469",
"F  c #6CB66C",
"G  c #71BE67",
"H  c #6FAF7A",
"J  c #76AA75",
"K  c #71AD7B",
"L  c #74BA71",
"P  c #67C057",
"I  c #67C058",
"U  c #6DC15E",
"Y  c #6FC162",
"T  c #7BC56D",
"R  c #7FC17D",
"E  c #849649",
"W  c #8D974A",
"Q  c #8D994A",
"!  c #95964A",
"~  c #94994B",
"^  c #9D994B",
"/  c #919B50",
"(  c #A59B4B",
")  c #AB9C4A",
"_  c #B49E4B",
"`  c #BB9F4A",
"'  c #BEA04A",
"]  c #B5A35F",
"[  c #C5A14A",
"{  c #C8A24A",
"}  c #C2A356",
"|  c #81C774",
" . c #86C97B",
".. c #75AE81",
"X. c #7AB786",
"o. c #818581",
"O. c #949495",
"+. c #80BE87",
"@. c #84BA8D",
"#. c #93A996",
"$. c #9BAB9B",
"%. c #8CBA93",
"&. c #95BA90",
"*. c #9BBFA0",
"=. c #A3A5A3",
"-. c #ACBEB0",
";. c #B0B5B2",
":. c #8AC58A",
">. c #8ED382",
",. c #93C397",
"<. c #96CC96",
"1. c #9CD396",
"2. c #99C5A5",
"3. c #A9CFAE",
"4. c #AAD9A1",
"5. c #B4DDAC",
"6. c #ACC7B3",
"7. c #B2C4B4",
"8. c #B5D4BA",
"9. c #B8D8BD",
"0. c #BCD4C0",
"q. c #C5E3C1",
"w. c #CAE7C3",
"e. c #CFE9CB",
"r. c #DAF1D5",
"t. c #E3F3DF",
"y. c #E6F5E4",
"u. c #F5FAF1",
"i. c #F3FBF4",
"p. c #F6FCF5",
"a. c #F9FBF6",
"s. c #F8FBF6",
"d. c #F9FCF6",
"f. c #FCFCFA",
"g. c #FCFDFC",
"h. c #FCFEFC",
"j. c #FDFFFD",
"k. c #FEFDFE",
"l. c #FEFEFE",
"z. c #FFFEFE",
/* pixels */
"{ { { { { { { { { { { { [ { { { { { { { { { { { { { { { { { { { ",
"{ { { { { { { { { { { { { { { { { { { { { { { { { { { { { { { { ",
"{ { { { { { { { { { { { [ { { [ ' _ [ [ { { { { { { { { { { { { ",
"{ { { { { { { { { { { { } / r 0 0 0 e Q ' { { { { { { { { { { { ",
"{ { { { { { { { { { { ] &.q l z z z 8 ; e ' { { { { { { { { { { ",
"{ { { { { { { { { { _ J <.M b M M M M  .S 9 ) { { { { { { { { { ",
"{ { { { { { { { { ' 0 B I M M M M M  .h.p.:.6 ( { { { { { { { { ",
"{ { { { { { { { { a h M M M M M M M T h.h.d.L 7 ' { { { { { { { ",
"{ { { { { { { { ( 6 m m M M M M M M C 5.s.g.q.q W { { { { { { { ",
"{ { { { { { { [ a j M M M M M M M M M M 5.k.s. .r [ { { { { { { ",
"{ { { { { { { ~ > m M M M M M M M M M M M y.h.e.q ( { { { { { { ",
"{ { { { { { { i g M M m m M M M M M M M m 4.h.i.l Q { { { { { { ",
"{ { { { { { ) 6 n M M M M M M M M M M M m C u.y.x s { { { { { { ",
"{ { { ) E d r g M M c > g m M M M M M m j h G Y n : ~ ^ [ { { { ",
"{ [ u , ; ; ; j M c y %.H > M M M M m q S D 1 M M 1 , ; 2 Q { { ",
"' s ; 8 h z : v M g 6.# A H n m M M j ..o.% @.z M 8 > 8 : ; d [ ",
"Q ; x m M b > m m t O.  . 8.h M M M g #.X . 7.N M g j m n k : E ",
"e g b m M j 8 M m q =.  o 3.h M M M 8 $..   7.l M h h m M M k 9 ",
"2 j M m g ; 8 b M q 0.o.;.D n M M M h &.& $ 9.x M z : v b M n , ",
"r : k ; ; 4 h M b v < X.S g m 8 , q n y ,.2.X.Z M n , , k m n ; ",
") 0 - a ) ! g M M M m h z m ; O O + 8 n 8 N 1.U M m 6 a ; : , < ",
"{ ) ( ` { E j b M M m m M m * + @ + ; M m M >.Z M M 6 ` f 7 7 f ",
"{ { { { { f F | M M M M M M j g k 8 l M M M M M M M > { { ' ' [ ",
"{ { { { { d 3.w.M M M M M M m M b m m M M M M M M M : [ { { { { ",
"{ { { { { s 9.r.M M M M M M M M M M b M M M M m M M : _ { { { { ",
"{ { { { { 5 <.5.j v M M M M M m M M M M M M M n M M > ( { { { { ",
"{ { { { { 5 v v , > M M M m n m M M v j M M m : z M 1 ^ { { { { ",
"{ { { { { a j 8 5 6 m M b > > m M M > : n M j = : m 8 ! { { { { ",
"{ { { { { s < 9 ) s l M j 9 e l M m - p g M k f a g q ! { { { { ",
"{ { { { { E ; Q { ( : j ; ~ ( 6 v h 5 _ 7 j 6 ) ) 0 ; ( { { { { ",
"{ { { { { ) f [ { { w < r [ { a > : ^ { W , r { { ! - ' { { { { ",
"{ { { { { { { [ { { ^ 0 ) { { _ 2 e { { { a ^ { { { ) { { { { { "
};
