/* XPM */
static char *_b50ef4b6ad94bc6b40a2613e35a6ea95C9QffEZpucvnPaX[] = {
/* columns rows colors chars-per-pixel */
"32 32 53 1 ",
"  c #C8A24A",
". c #C9A24A",
"X c #C9A34A",
"o c #CAA34A",
"O c #CBA44A",
"+ c #CCA44A",
"@ c #CDA44A",
"# c #CEA54A",
"$ c #CDA54A",
"% c #C7A149",
"& c #C39D48",
"* c #BE9948",
"= c #BD9947",
"- c #BF9A48",
"; c #C39D49",
": c #C8A14A",
"> c #C6A049",
", c #C09B48",
"< c #B08F46",
"1 c #A18444",
"2 c #9E8143",
"3 c #A48644",
"4 c #B29046",
"5 c #C29C49",
"6 c #CBA34B",
"7 c #CBA34A",
"8 c #CAA249",
"9 c #B79446",
"0 c #9D8142",
"q c #836E3F",
"w c #7D6A3E",
"e c #877140",
"r c #9F8243",
"t c #BC9747",
"y c #B89547",
"u c #867040",
"i c #806B3F",
"p c #8A7340",
"a c #A18443",
"s c #BC9847",
"d c #CCA34A",
"f c #C19C48",
"g c #B39146",
"h c #A18343",
"j c #A78744",
"k c #B49146",
"l c #CBA44B",
"z c #C8A149",
"x c #C59E48",
"c c #C19B48",
"v c #C59E49",
"b c #CAA24A",
"n c white",
/* pixels */
"                                ",
"                                ",
"                                ",
"                                ",
"                                ",
"                                ",
"                                ",
"             ..                 ",
"            Xooo..              ",
"        ..oO+@#$+OX             ",
"        Xo.%&*=-;:oo.           ",
"        oo>,<123456OX           ",
"        78&90qwert7$o.          ",
"        78&yruipasd$o.          ",
"        XX>fg3hjk;lOX           ",
"        ...zxc-cv.7o            ",
"         .oO+@@@+7.             ",
"           .ooob.               ",
"            ...                 ",
"                                ",
"                                ",
"                                ",
"                                ",
"                                ",
"                                ",
"                                ",
"                                ",
"                                ",
"                                ",
"                                ",
"                                ",
"                                "
};
