/* XPM */
static char *_b293d6f78cb4a79b4c5c3e14ef80c881U2gz8ZIxnb5X1ae[] = {
/* columns rows colors chars-per-pixel */
"32 32 180 2 ",
"   c #666665",
".  c #656564",
"X  c #646463",
"o  c #676766",
"O  c #686867",
"+  c #696968",
"@  c #7F7F7E",
"#  c #7E7E7D",
"$  c #7B7B7A",
"%  c #747473",
"&  c #6D6D6C",
"*  c #6B6B6A",
"=  c #6E6E6D",
"-  c #80807F",
";  c #7E7E7E",
":  c gray63",
">  c #A1A1A0",
",  c gray64",
"<  c gray62",
"1  c #969695",
"2  c #868685",
"3  c gray45",
"4  c #838383",
"5  c #959595",
"6  c #A2A2A1",
"7  c #A5A5A4",
"8  c #A2A2A2",
"9  c gray77",
"0  c #C4C4C5",
"q  c #C6C6C7",
"w  c gray",
"e  c #B0B0AF",
"r  c #797978",
"t  c #6F6F6E",
"y  c #7A7A79",
"u  c #929292",
"i  c gray69",
"p  c #CACAC9",
"a  c #C5C5C5",
"s  c gray75",
"d  c #BFBFC0",
"f  c #C0C0C1",
"g  c #C2C2C3",
"h  c gray76",
"j  c #BABABB",
"k  c #ACACAD",
"l  c #949493",
"z  c #787877",
"x  c #6D6D6D",
"c  c #90908F",
"v  c gray68",
"b  c #C0C0C0",
"n  c #C1C1C1",
"m  c gray66",
"M  c #A9A9A9",
"N  c gray67",
"B  c gray65",
"V  c gray61",
"C  c #898989",
"Z  c #737372",
"A  c #747373",
"S  c #868585",
"D  c #9B9B9B",
"F  c #AAAAAA",
"G  c #ADADAE",
"H  c #A9A9AA",
"J  c #A8A8A9",
"K  c gray58",
"L  c #979797",
"P  c #8D8D8D",
"I  c #70706F",
"U  c #7E7D7D",
"Y  c #8D8C8C",
"T  c gray60",
"R  c gray59",
"E  c gray56",
"W  c #909090",
"Q  c #6C6B6B",
"!  c #706F6F",
"~  c #7C7B7B",
"^  c #898888",
"/  c #929191",
"(  c #939393",
")  c gray57",
"_  c #8B8B8A",
"`  c #727271",
"'  c #6E6D6C",
"]  c #727171",
"[  c gray49",
"{  c #8B8B8B",
"}  c #8C8C8B",
"|  c #737271",
" . c #6F6E6D",
".. c gray55",
"X. c #8A8A89",
"o. c #7D7D7C",
"O. c gray54",
"+. c #949595",
"@. c #8E8E8E",
"#. c #8E8F8F",
"$. c #8B8C8C",
"%. c #868787",
"&. c #7C7C7B",
"*. c #858584",
"=. c #6F6F6F",
"-. c #848484",
";. c gray51",
":. c #848483",
">. c gray52",
",. c #7B7B7B",
"<. c gray48",
"1. c #777776",
"2. c #6C6C6C",
"3. c #6C6C6B",
"4. c #6A6A69",
"5. c #6A6A6A",
"6. c gray43",
"7. c #757574",
"8. c #777777",
"9. c #767675",
"0. c #767676",
"q. c #9A9A9A",
"w. c #9C9C9B",
"e. c #989897",
"r. c #989898",
"t. c #999998",
"y. c #9B9B9A",
"u. c #9A9A99",
"i. c #8D8D8C",
"p. c #626261",
"a. c #ABABAA",
"s. c gray74",
"d. c #BCBCBC",
"f. c #BBBBBB",
"g. c #BBBBBC",
"h. c gray71",
"j. c #A5A5A5",
"k. c #60605F",
"l. c gray47",
"z. c #B1B1B2",
"x. c #C5C5C6",
"c. c #C9C9CA",
"v. c #C8C8C8",
"b. c #BDBDBE",
"n. c #A0A0A0",
"m. c #AFAFB0",
"M. c #B2B2B3",
"N. c #AEAEAE",
"B. c #AFAFAF",
"V. c #B1B1B1",
"C. c gray44",
"Z. c #9B9B9C",
"A. c #9D9D9E",
"S. c #696967",
"D. c #7A7979",
"F. c #868686",
"G. c #676665",
"H. c #717070",
"J. c #7C7B7A",
"K. c #8B8A8A",
"L. c #949393",
"P. c #898988",
"I. c #686766",
"U. c #7D7C7C",
"Y. c #929291",
"T. c #7D7C7B",
"R. c #706F6E",
"E. c #737272",
"W. c #8C8B8B",
"Q. c #909190",
"!. c #888888",
"~. c #8F9090",
"^. c #8C8D8D",
"/. c #727272",
"(. c #717170",
"). c #818181",
"_. c gray53",
"`. c #7C7C7C",
"'. c #717171",
"]. c white",
/* pixels */
"      . . X . . . . . . .     o O + + + O o   . . . . . . .     ",
"@ @ @ # # # # # # # # # @ @ # $ % & * = % $ @ - ; # # # ; ; ; ; ",
": : : : > > > > > > : : , , < 1 2 3 & % 4 5 6 7 8 : : : : : : : ",
"9 9 9 9 9 9 9 9 9 9 0 0 q q w e 1 r t y u i 9 p a 0 9 9 9 9 9 9 ",
"s s s s s s s s s s d f g h j k l z x z c v b a n d s s s s s s ",
"m m m m m m m m m m m M N N B V C Z * A S D F G H J m m m m m m ",
"K K K K K K K K K K 5 5 L L K P - I * I U Y L T R 5 K K K K K K ",
"E E E E E E E E E E W W u u E C # I Q ! ~ ^ / ( W W E E E E E E ",
"u u u u u u u u u u ( ( K K ) _ @ ` ' ] [ { K R K ( u u u u u u ",
"( ( ( ( ( ( ( ( ( ( K K R R u } - |  .Z ; ..5 L 5 K ( ( ( ( ( ( ",
"u u u u u u u u u u u u ( ( W X.@ Z t Z o.O.u +.( u u u u u u u ",
"@.@.@.@.@.@.@.@.@.@.@.@.E #.$.%.[ Z t Z &.%.#.W @.@.@.@.@.@.@.@.",
"O.O.O.O.O.O.O.O.O.O.O.{ { { C *.&.Z =.Z $ -.{ ..{ O.O.O.O.O.O.O.",
"-.-.-.-.-.-.-.-.-.-.-.-.-.-.;.@ r ` t ` z @ :.>.-.-.-.-.-.-.-.-.",
",.$ $ $ <.<.<.<.<.<.<.<.<.y r 1.Z t = =.Z 1.y <.<.<.<.<.<.<.<.,.",
"I I t t = & 2.3.3.3.3.3.3.3.3.* 4.+ O + 5.* 3.3.3.3.& = = 6.=.I ",
"O 4.& I 7.8.8.1.9.9.9.9.9.9.9.9.0.0.0.0.0.9.9.9.1.1.z 1.% I * O ",
". 4.` # c q.w.T e.e.e.e.e.e.r.r.r.r.r.r.r.r.r.r.t.y.u.1 i.# = . ",
"p.4.z } a.s.n s.d.f.f.f.f.f.f.g.g.g.g.g.g.g.g.d.s.s w h.j.{ ` p.",
"k.+ l.@.z.x.c.q 0 0 9 9 9 9 9 9 9 9 9 9 9 9 0 0 x.v.q b.N @.` k.",
"k.o 3 >.n.m.M.m.G v v v v v v v v v v v v v v N.B.V.i M V *.= k.",
"p.o C.[ ) Z.A.q.T T T T T T T T T T T T T T T T q.V D L P o.& p.",
". S.! D.C ) u W E E E E E E E E E E E E E E E E W ) ) @.F.y & . ",
"G.4.H.J.K.L.K u u u u u u u u u u u u u u u u u u K ( W P.&. .G.",
"I.* ] U...5 R K ( ( ( ( ( ( ( ( ( ( ( ( ( ( ( ( K R 5 Y.X.T.R.I.",
"O 3.E.U.W.K 5 ( ( ( ( ( ( ( ( ( ( ( ( ( ( ( ( ( ( K K Q.P.&.I O ",
"4.& Z ,.!.W ) E E E E E E E E E E E E E E E E E E W ~.^.>.$ I 4.",
"* = /.<.>.{ P { { { { { { { { { { { { { { { { { { ^...C 4 y (.* ",
"3.= ` z ).F._.F.F.F.F.F.F.F.F.F.F.F.F.F.F.F.F.F.F._.F.:.- z (.3.",
"3.& I Z r o.[ `.`.`.`.`.`.[ [ o.o.`.`.`.`.`.`.`.`.o.&.$ z % t 3.",
"O + 4.* & t t 6.t t =.C.'.` ` ` (.I t 6.6.6.6.6.6.6.6.= 3.* + O ",
"X X X X X X X X X .   o + 4.4.+ O   . X X X X X X X X X X X X X "
};
